<?xml version="1.0" encoding="utf-8"?>
<!-- Generator: Adobe Illustrator 28.1.0, SVG Export Plug-In . SVG Version: 6.00 Build 0)  -->
<svg version="1.1" id="Ebene_1" xmlns="http://www.w3.org/2000/svg" xmlns:xlink="http://www.w3.org/1999/xlink" x="0px" y="0px"
	 viewBox="0 0 30.615 33.911" enable-background="new 0 0 30.615 33.911" xml:space="preserve">
<g>
	<path fill="#FFFFFF" d="M30.485,27.334c0.098-0.97-0.215-1.462-1.25-1.304c-0.96,0.146-1.308-0.188-1.297-1.226
		c0.059-5.271,0.062-10.544,0.02-15.815c-0.008-0.999,0.283-1.374,1.273-1.263c0.981,0.11,1.465-0.237,1.371-1.361
		c-0.114-1.368-0.077-2.754-0.033-4.129c0.028-0.867-0.315-1.192-1.163-1.185c-0.54,0.004-1.261,0.269-1.579-0.323
		c-0.413-0.772-1.041-0.705-1.7-0.705c-3.61-0.001-7.219,0-10.829-0.001C11.69,0.018,8.081,0.012,4.471,0.024
		C3.962,0.026,3.248-0.138,3.02,0.36c-0.387,0.847-1.003,0.696-1.652,0.66C0.4,0.968,0.001,1.418,0.037,2.393
		C0.083,3.626,0.12,4.869,0.015,6.095C-0.091,7.332,0.351,7.872,1.59,7.785c0.547-0.038,1-0.01,0.997,0.791
		C2.565,14.133,2.583,19.69,2.588,25.247c0,0.382,0.047,0.838-0.56,0.695c-1.813-0.425-1.924,0.688-1.856,2.003
		c0.029,0.568,0.047,1.143-0.004,1.709c-0.085,0.943,0.215,1.454,1.249,1.336c0.529-0.06,0.847,0.052,0.898,0.738
		c0.158,2.149,0.196,2.145,2.415,2.079c0.332-0.01,0.68-0.069,0.995,0.004c1.497,0.349,2.081-0.203,1.858-1.724
		c-0.08-0.549-0.127-1.162,0.789-1.154c4.511,0.042,9.023,0.05,13.534,0.079c0.469,0.003,0.947-0.026,0.984,0.697
		c0.035,0.69-0.372,1.651,0.246,2.002c0.571,0.324,1.464,0.082,2.215,0.088c0.38,0.003,0.768-0.048,1.139,0.01
		c1.364,0.215,2.082-0.176,1.801-1.712c-0.091-0.497-0.125-1.145,0.706-1.045c1.392,0.168,1.584-0.61,1.485-1.725
		C30.423,28.667,30.418,27.992,30.485,27.334z M19.482,4.353c0.895,0.022,1.791,0.018,2.685-0.02c0.64-0.027,0.941,0.16,0.93,0.867
		c-0.01,0.687-0.38,0.761-0.906,0.745c-0.424-0.013-0.848-0.003-1.272-0.003c-0.471,0-0.944-0.022-1.413,0.005
		c-0.642,0.037-0.798-0.297-0.794-0.866C18.716,4.53,18.947,4.339,19.482,4.353z M15.574,4.363c0.528,0.027,1.026-0.042,1.014,0.763
		c-0.01,0.704-0.327,0.909-0.965,0.833c-0.637,0.104-0.92-0.133-0.91-0.831C14.723,4.486,15.007,4.334,15.574,4.363z M8.104,4.308
		c1.23,0.035,2.462,0,3.693-0.03c0.553-0.013,0.758,0.219,0.732,0.763c-0.023,0.492,0.027,0.976-0.698,0.952
		c-0.662-0.021-1.326-0.005-1.989-0.005c0-0.003,0-0.006,0-0.008c-0.568,0-1.139-0.03-1.704,0.008
		c-0.62,0.041-0.849-0.204-0.826-0.82C7.331,4.617,7.431,4.289,8.104,4.308z M24.044,25.164c0.009,0.857-0.292,1.027-1.062,1.031
		c-2.823,0.014-3.449-0.743-2.908-3.561c0.093-0.485,0.316-0.634,0.753-0.633c0.371,0.002,0.681-0.125,0.639-0.561
		c-0.039-0.4-0.393-0.331-0.661-0.332c-4.122-0.004-8.244-0.003-12.531-0.003c0.855,1.611,0.526,3.106,0.52,4.534
		c-0.003,0.843-0.903,0.334-1.389,0.406c-0.753,0.111-0.792-0.413-0.792-0.998c-0.001-4.177-0.026-8.355-0.038-12.532
		c-0.004-1.234,0.063-2.471,0.001-3.702c-0.046-0.903,0.312-1.149,1.155-1.11c1.184,0.055,2.374,0.045,3.559-0.004
		c0.822-0.034,1.431,0.033,1.257,1.108c-0.065,0.4,0.053,0.809,0.574,0.775C13.575,9.554,14,10.059,14.51,9.418
		c0.69-0.868,1.7-0.871,2.396,0.002c0.48,0.603,0.848,0.097,1.253,0.124c0.546,0.035,0.573-0.417,0.53-0.8
		c-0.094-0.824,0.257-1.099,1.055-1.038c1.362,0.104,3.097-0.546,3.991,0.252c0.847,0.756,0.26,2.51,0.272,3.821
		C24.045,16.241,23.998,20.703,24.044,25.164z"/>
	<path fill="#FFFFFF" d="M16.872,11.271c-0.377-0.031-0.76-0.007-1.14-0.007c0,0.002,0,0.005,0,0.007
		c-0.428,0-0.855-0.009-1.283,0.002c-1.312,0.034-1.417,0.24-0.725,1.399c0.966,1.618,0.866,1.994-0.787,2.959
		c-2.054,1.199-2.054,1.199-1.004,3.351c0.042,0.085,0.075,0.176,0.126,0.255c0.196,0.307,0.245,0.838,0.703,0.8
		c0.564-0.046,0.348-0.591,0.361-0.919c0.022-0.555,0.309-0.857,0.755-1.105c0.664-0.369,1.274-0.866,1.974-1.131
		c1.191-0.45,1.507-1.241,1.367-2.432c-0.078-0.667-0.367-1.453,0.234-2.017c0.298-0.279,0.628-0.499,0.441-0.911
		C17.696,11.081,17.226,11.3,16.872,11.271z"/>
</g>
</svg>
