<?xml version="1.0" encoding="utf-8"?>
<!-- Generator: Adobe Illustrator 28.1.0, SVG Export Plug-In . SVG Version: 6.00 Build 0)  -->
<svg version="1.1" id="Ebene_1" xmlns="http://www.w3.org/2000/svg" xmlns:xlink="http://www.w3.org/1999/xlink" x="0px" y="0px"
	 viewBox="0 0 508.89 108.398" enable-background="new 0 0 508.89 108.398" xml:space="preserve">
<g>
	<g>
		<g>
			<g enable-background="new    ">
				<g enable-background="new    ">
					<defs>
						<path id="SVGID_00000034788976407913564980000016430881180109248956_" enable-background="new    " d="M463.903,68.549
							L458.3,80.02c1.665-3.409,2.133-7.453,1.095-11.789c-2.913-12.164-16.583-22.028-30.546-22.028
							c-8.982,0-15.892,4.087-18.899,10.243l5.603-11.472c3.007-6.156,9.917-10.243,18.899-10.243
							c13.964,0,27.633,9.864,30.546,22.028C466.037,61.096,465.569,65.14,463.903,68.549z"/>
					</defs>
					<clipPath id="SVGID_00000037674553550306487090000016445189817859585179_">
						<use xlink:href="#SVGID_00000034788976407913564980000016430881180109248956_"  overflow="visible"/>
					</clipPath>
					<g clip-path="url(#SVGID_00000037674553550306487090000016445189817859585179_)" enable-background="new    ">
						<path fill="#858585" d="M463.903,68.549L458.3,80.02c1.665-3.409,2.133-7.453,1.095-11.789
							c-2.025-8.454-9.245-15.798-18.15-19.491l5.603-11.472c8.904,3.693,16.125,11.036,18.15,19.491
							C466.037,61.096,465.569,65.14,463.903,68.549"/>
						<path fill="#8A8A8A" d="M446.849,37.27l-5.603,11.472c-3.907-1.62-8.138-2.538-12.396-2.538
							c-8.982,0-15.892,4.087-18.899,10.243l5.603-11.472c3.007-6.156,9.917-10.243,18.899-10.243
							C438.711,34.732,442.942,35.649,446.849,37.27"/>
					</g>
				</g>
				<g enable-background="new    ">
					<defs>
						<path id="SVGID_00000101798128816497022450000004204340455621880483_" enable-background="new    " d="M495.121,73.739
							l-5.603,11.472c-5.603,11.471-18.472,19.124-35.126,19.124l5.603-11.472C476.648,92.863,489.517,85.21,495.121,73.739z"/>
					</defs>
					<clipPath id="SVGID_00000062899488139085991240000017873639258361733309_">
						<use xlink:href="#SVGID_00000101798128816497022450000004204340455621880483_"  overflow="visible"/>
					</clipPath>
					<g clip-path="url(#SVGID_00000062899488139085991240000017873639258361733309_)" enable-background="new    ">
						<path fill="#8A8A8A" d="M495.121,73.739l-5.603,11.472c-5.603,11.471-18.472,19.124-35.126,19.124l5.603-11.472
							C476.648,92.863,489.517,85.21,495.121,73.739"/>
					</g>
				</g>
				<g enable-background="new    ">
					<defs>
						<path id="SVGID_00000132768136223054011670000000367582931000796057_" enable-background="new    " d="M13.769,34.658
							l5.603-11.472c-3.092,6.331-3.972,13.825-2.053,21.837l-5.603,11.472C9.798,48.483,10.677,40.989,13.769,34.658z"/>
					</defs>
					<clipPath id="SVGID_00000172411305147247865820000016964616724166965413_">
						<use xlink:href="#SVGID_00000132768136223054011670000000367582931000796057_"  overflow="visible"/>
					</clipPath>
					<g clip-path="url(#SVGID_00000172411305147247865820000016964616724166965413_)" enable-background="new    ">
						<path fill="#858585" d="M17.32,45.023l-5.603,11.472c-1.919-8.012-1.04-15.506,2.053-21.837l5.603-11.472
							C16.28,29.517,15.401,37.011,17.32,45.023"/>
					</g>
				</g>
				<g>
					<polygon fill="#808080" points="18.967,51.902 13.364,63.374 11.717,56.495 17.32,45.023 					"/>
				</g>
				<g>
					<polygon fill="#969696" points="459.994,92.863 454.391,104.334 70.162,104.334 75.765,92.863 					"/>
				</g>
				<g>
					<path fill="#FAFAFA" d="M438.728,4.062c25.845,0,51.402,18.431,56.798,40.961l1.647,6.879
						c5.396,22.53-11.334,40.961-37.179,40.961l-384.229,0c-25.845,0-51.402-18.431-56.798-40.961l-1.647-6.879
						C11.924,22.493,28.654,4.062,54.499,4.062L438.728,4.062z M445.003,78.789c13.964,0,22.908-9.864,19.995-22.029
						c-2.913-12.164-16.583-22.028-30.546-22.028c-13.954,0-22.907,9.864-19.994,22.028
						C417.371,68.925,431.05,78.789,445.003,78.789"/>
				</g>
				<g enable-background="new    ">
					<defs>
						<path id="SVGID_00000076598290423546414700000002091642382297036173_" enable-background="new    " d="M75.765,92.863
							l-5.603,11.472c-25.845,0-51.402-18.431-56.798-40.961l5.603-11.472C24.363,74.432,49.92,92.863,75.765,92.863z"/>
					</defs>
					<clipPath id="SVGID_00000139296266375714936510000005216830210344308118_">
						<use xlink:href="#SVGID_00000076598290423546414700000002091642382297036173_"  overflow="visible"/>
					</clipPath>
					<g clip-path="url(#SVGID_00000139296266375714936510000005216830210344308118_)" enable-background="new    ">
						<path fill="#8A8A8A" d="M75.765,92.863l-5.603,11.472c-7.859,0-15.692-1.704-22.939-4.71l5.603-11.472
							C60.074,91.159,67.906,92.863,75.765,92.863"/>
						<path fill="#858585" d="M52.827,88.153l-5.603,11.472c-16.585-6.878-30.104-20.572-33.859-36.251l5.603-11.472
							C22.722,67.581,36.241,81.275,52.827,88.153"/>
					</g>
				</g>
			</g>
		</g>
	</g>
	<g>
		<g>
			<g enable-background="new    ">
				<g enable-background="new    ">
					<defs>
						<path id="SVGID_00000133510617260994638230000012755447273614850216_" enable-background="new    " d="M487.492,42.48
							l-5.603,11.472c-4.218-17.613-24.091-31.944-44.295-31.944l5.603-11.472C463.4,10.536,483.274,24.867,487.492,42.48z"/>
					</defs>
					<clipPath id="SVGID_00000006673323706740061910000004495748120171170462_">
						<use xlink:href="#SVGID_00000133510617260994638230000012755447273614850216_"  overflow="visible"/>
					</clipPath>
					<g clip-path="url(#SVGID_00000006673323706740061910000004495748120171170462_)" enable-background="new    ">
						<path fill="#3F6923" d="M487.492,42.48l-5.603,11.472c-2.933-12.248-13.437-22.909-26.357-28.267l5.603-11.472
							C474.055,19.571,484.558,30.232,487.492,42.48"/>
						<path fill="#426D24" d="M461.134,14.213l-5.603,11.472c-5.66-2.347-11.784-3.677-17.938-3.677l5.603-11.472
							C449.351,10.536,455.474,11.866,461.134,14.213"/>
					</g>
				</g>
				<g>
					<polygon fill="#3D6522" points="490.357,54.445 484.754,65.917 481.888,53.951 487.492,42.48 					"/>
				</g>
				<g enable-background="new    ">
					<defs>
						<path id="SVGID_00000102540253597921532300000004623128597027534757_" enable-background="new    " d="M488.764,71.512
							l-5.603,11.472c2.413-4.94,3.095-10.795,1.593-17.066l5.603-11.472C491.859,60.716,491.177,66.571,488.764,71.512z"/>
					</defs>
					<clipPath id="SVGID_00000113337821778197702700000012279488687769281712_">
						<use xlink:href="#SVGID_00000102540253597921532300000004623128597027534757_"  overflow="visible"/>
					</clipPath>
					<g clip-path="url(#SVGID_00000113337821778197702700000012279488687769281712_)" enable-background="new    ">
						<path fill="#3F6923" d="M488.764,71.512l-5.603,11.472c2.413-4.94,3.095-10.795,1.593-17.066l5.603-11.472
							C491.859,60.716,491.177,66.571,488.764,71.512"/>
					</g>
				</g>
				<g enable-background="new    ">
					<defs>
						<path id="SVGID_00000087410539058385652440000001731070642800105128_" enable-background="new    " d="M497.752,75.891
							l-5.603,11.472c-5.483,11.225-18.08,18.69-34.428,18.69l5.603-11.472C479.672,94.581,492.269,87.116,497.752,75.891z"/>
					</defs>
					<clipPath id="SVGID_00000099649089341859406810000005776672869405620884_">
						<use xlink:href="#SVGID_00000087410539058385652440000001731070642800105128_"  overflow="visible"/>
					</clipPath>
					<g clip-path="url(#SVGID_00000099649089341859406810000005776672869405620884_)" enable-background="new    ">
						<path fill="#426D24" d="M497.752,75.891l-5.603,11.472c-5.483,11.225-18.08,18.69-34.428,18.69l5.603-11.472
							C479.672,94.581,492.269,87.116,497.752,75.891"/>
					</g>
				</g>
				<g>
					<polygon fill="#487627" points="443.196,10.536 437.593,22.007 47.528,22.007 53.132,10.536 					"/>
				</g>
				<g enable-background="new    ">
					<defs>
						<path id="SVGID_00000061442935761114058900000014767336084329836711_" enable-background="new    " d="M20.127,36.885
							l5.603-11.472c4.364-8.935,14.391-14.878,27.402-14.878l-5.603,11.472C34.518,22.007,24.491,27.95,20.127,36.885z"/>
					</defs>
					<clipPath id="SVGID_00000080915834443068780140000009746428066368071304_">
						<use xlink:href="#SVGID_00000061442935761114058900000014767336084329836711_"  overflow="visible"/>
					</clipPath>
					<g clip-path="url(#SVGID_00000080915834443068780140000009746428066368071304_)" enable-background="new    ">
						<path fill="#426D24" d="M53.132,10.536l-5.603,11.472c-13.011,0-23.037,5.943-27.402,14.878l5.603-11.472
							C30.094,16.479,40.121,10.536,53.132,10.536"/>
					</g>
				</g>
				<g enable-background="new    ">
					<defs>
						<path id="SVGID_00000011004893665419159670000009444468878840428938_" enable-background="new    " d="M11.139,32.506
							l5.603-11.472c-3.032,6.207-3.889,13.565-2.001,21.445L9.137,53.951C7.25,46.071,8.107,38.714,11.139,32.506z"/>
					</defs>
					<clipPath id="SVGID_00000047032227733475781250000008406958113425093009_">
						<use xlink:href="#SVGID_00000011004893665419159670000009444468878840428938_"  overflow="visible"/>
					</clipPath>
					<g clip-path="url(#SVGID_00000047032227733475781250000008406958113425093009_)" enable-background="new    ">
						<path fill="#3F6923" d="M14.741,42.48L9.137,53.951c-1.887-7.881-1.031-15.238,2.001-21.445l5.603-11.472
							C13.71,27.242,12.853,34.599,14.741,42.48"/>
					</g>
				</g>
				<g>
					<polygon fill="#3D6522" points="17.606,54.445 12.003,65.917 9.137,53.951 14.741,42.48 					"/>
				</g>
				<g>
					<polygon fill="#487627" points="463.324,94.581 457.72,106.052 67.656,106.052 73.259,94.581 					"/>
				</g>
				<g>
					<path fill="#77C542" d="M441.234,2.345c25.389,0,50.353,18.003,55.653,40.135l2.866,11.965
						c5.3,22.132-11.041,40.135-36.429,40.135l-390.064,0c-25.389,0-50.353-18.003-55.653-40.135L14.741,42.48
						C9.44,20.348,25.781,2.345,51.17,2.345L441.234,2.345z M490.357,54.445l-2.866-11.965
						c-4.218-17.613-24.091-31.944-44.295-31.944l-390.064,0c-20.204,0-33.213,14.332-28.995,31.944l2.866,11.965
						C31.22,72.058,51.093,86.39,71.298,86.39l390.064,0C481.566,86.39,494.575,72.058,490.357,54.445"/>
				</g>
				<g enable-background="new    ">
					<defs>
						<path id="SVGID_00000165916041384670360570000007000698744262676374_" enable-background="new    " d="M73.259,94.581
							l-5.603,11.472c-25.389,0-50.353-18.003-55.653-40.135l5.603-11.472C22.906,76.577,47.87,94.581,73.259,94.581z"/>
					</defs>
					<clipPath id="SVGID_00000020400341374021110310000010202628557826801041_">
						<use xlink:href="#SVGID_00000165916041384670360570000007000698744262676374_"  overflow="visible"/>
					</clipPath>
					<g clip-path="url(#SVGID_00000020400341374021110310000010202628557826801041_)" enable-background="new    ">
						<path fill="#426D24" d="M73.259,94.581l-5.603,11.472c-7.734,0-15.43-1.671-22.541-4.62l5.603-11.472
							C57.83,92.91,65.525,94.581,73.259,94.581"/>
						<path fill="#3F6923" d="M50.718,89.96l-5.603,11.472C28.882,94.7,15.688,81.306,12.003,65.917l5.603-11.472
							C21.292,69.835,34.485,83.228,50.718,89.96"/>
					</g>
				</g>
			</g>
		</g>
	</g>
</g>
<rect x="63.383" y="33.418" fill="none" width="334.42" height="47.078"/>
<text transform="matrix(1 0 0 1 154.8316 71.8654)" fill="#8CC63F" font-family="'Bevan'" font-size="48px">Calle</text>
</svg>
