<?xml version="1.0" encoding="utf-8"?>
<!-- Generator: Adobe Illustrator 28.1.0, SVG Export Plug-In . SVG Version: 6.00 Build 0)  -->
<svg version="1.1" id="Ebene_1" xmlns="http://www.w3.org/2000/svg" xmlns:xlink="http://www.w3.org/1999/xlink" x="0px" y="0px"
	 viewBox="0 0 508.89 108.398" enable-background="new 0 0 508.89 108.398" xml:space="preserve">
<g>
	<g>
		<g>
			<g enable-background="new    ">
				<g enable-background="new    ">
					<defs>
						<path id="SVGID_00000033333413717390708740000008516915598332368513_" enable-background="new    " d="M463.903,68.549
							L458.3,80.02c1.665-3.409,2.133-7.453,1.095-11.789c-2.913-12.164-16.583-22.028-30.546-22.028
							c-8.982,0-15.892,4.087-18.899,10.243l5.603-11.472c3.007-6.156,9.917-10.243,18.899-10.243
							c13.964,0,27.633,9.864,30.546,22.028C466.037,61.096,465.569,65.14,463.903,68.549z"/>
					</defs>
					<clipPath id="SVGID_00000049219854624129338010000015714114069963956620_">
						<use xlink:href="#SVGID_00000033333413717390708740000008516915598332368513_"  overflow="visible"/>
					</clipPath>
					<g clip-path="url(#SVGID_00000049219854624129338010000015714114069963956620_)" enable-background="new    ">
						<path fill="#858585" d="M463.903,68.549L458.3,80.02c1.665-3.409,2.133-7.453,1.095-11.789
							c-2.025-8.454-9.245-15.798-18.15-19.491l5.603-11.472c8.904,3.693,16.125,11.036,18.15,19.491
							C466.037,61.096,465.569,65.14,463.903,68.549"/>
						<path fill="#8A8A8A" d="M446.849,37.27l-5.603,11.472c-3.907-1.62-8.138-2.538-12.396-2.538
							c-8.982,0-15.892,4.087-18.899,10.243l5.603-11.472c3.007-6.156,9.917-10.243,18.899-10.243
							C438.711,34.732,442.942,35.649,446.849,37.27"/>
					</g>
				</g>
				<g enable-background="new    ">
					<defs>
						<path id="SVGID_00000136370369085122083270000017042977743236946832_" enable-background="new    " d="M495.121,73.739
							l-5.603,11.472c-5.603,11.471-18.472,19.124-35.126,19.124l5.603-11.472C476.648,92.863,489.517,85.21,495.121,73.739z"/>
					</defs>
					<clipPath id="SVGID_00000183966424038538605480000016488408362890110395_">
						<use xlink:href="#SVGID_00000136370369085122083270000017042977743236946832_"  overflow="visible"/>
					</clipPath>
					<g clip-path="url(#SVGID_00000183966424038538605480000016488408362890110395_)" enable-background="new    ">
						<path fill="#8A8A8A" d="M495.121,73.739l-5.603,11.472c-5.603,11.471-18.472,19.124-35.126,19.124l5.603-11.472
							C476.648,92.863,489.517,85.21,495.121,73.739"/>
					</g>
				</g>
				<g enable-background="new    ">
					<defs>
						<path id="SVGID_00000129883968891756551740000008301579984201102778_" enable-background="new    " d="M13.769,34.658
							l5.603-11.472c-3.092,6.331-3.972,13.825-2.053,21.837l-5.603,11.472C9.798,48.483,10.677,40.989,13.769,34.658z"/>
					</defs>
					<clipPath id="SVGID_00000176029572606876748880000009263351431752266415_">
						<use xlink:href="#SVGID_00000129883968891756551740000008301579984201102778_"  overflow="visible"/>
					</clipPath>
					<g clip-path="url(#SVGID_00000176029572606876748880000009263351431752266415_)" enable-background="new    ">
						<path fill="#858585" d="M17.32,45.023l-5.603,11.472c-1.919-8.012-1.04-15.506,2.053-21.837l5.603-11.472
							C16.28,29.517,15.401,37.011,17.32,45.023"/>
					</g>
				</g>
				<g>
					<polygon fill="#808080" points="18.967,51.902 13.364,63.374 11.717,56.495 17.32,45.023 					"/>
				</g>
				<g>
					<polygon fill="#969696" points="459.994,92.863 454.391,104.334 70.162,104.334 75.765,92.863 					"/>
				</g>
				<g>
					<path fill="#FAFAFA" d="M438.728,4.062c25.845,0,51.402,18.431,56.798,40.961l1.647,6.879
						c5.396,22.53-11.334,40.961-37.179,40.961l-384.229,0c-25.845,0-51.402-18.431-56.798-40.961l-1.647-6.879
						C11.924,22.493,28.654,4.062,54.499,4.062L438.728,4.062z M445.003,78.789c13.964,0,22.908-9.864,19.995-22.029
						c-2.913-12.164-16.583-22.028-30.546-22.028c-13.954,0-22.907,9.864-19.994,22.028
						C417.371,68.925,431.05,78.789,445.003,78.789"/>
				</g>
				<g enable-background="new    ">
					<defs>
						<path id="SVGID_00000035507513971199621850000012246570993332829066_" enable-background="new    " d="M75.765,92.863
							l-5.603,11.472c-25.845,0-51.402-18.431-56.798-40.961l5.603-11.472C24.363,74.432,49.92,92.863,75.765,92.863z"/>
					</defs>
					<clipPath id="SVGID_00000062179072863381935020000008378242468355661192_">
						<use xlink:href="#SVGID_00000035507513971199621850000012246570993332829066_"  overflow="visible"/>
					</clipPath>
					<g clip-path="url(#SVGID_00000062179072863381935020000008378242468355661192_)" enable-background="new    ">
						<path fill="#8A8A8A" d="M75.765,92.863l-5.603,11.472c-7.859,0-15.692-1.704-22.939-4.71l5.603-11.472
							C60.074,91.159,67.906,92.863,75.765,92.863"/>
						<path fill="#858585" d="M52.827,88.153l-5.603,11.472c-16.585-6.878-30.104-20.572-33.859-36.251l5.603-11.472
							C22.722,67.581,36.241,81.275,52.827,88.153"/>
					</g>
				</g>
			</g>
		</g>
	</g>
	<g>
		<g>
			<g enable-background="new    ">
				<g enable-background="new    ">
					<defs>
						<path id="SVGID_00000137834789006545097860000017414300938784938378_" enable-background="new    " d="M487.492,42.48
							l-5.603,11.472c-4.218-17.613-24.091-31.944-44.295-31.944l5.603-11.472C463.4,10.536,483.274,24.867,487.492,42.48z"/>
					</defs>
					<clipPath id="SVGID_00000176748924475555805120000015677738665531955096_">
						<use xlink:href="#SVGID_00000137834789006545097860000017414300938784938378_"  overflow="visible"/>
					</clipPath>
					<g clip-path="url(#SVGID_00000176748924475555805120000015677738665531955096_)" enable-background="new    ">
						<path fill="#3F6923" d="M487.492,42.48l-5.603,11.472c-2.933-12.248-13.437-22.909-26.357-28.267l5.603-11.472
							C474.055,19.571,484.558,30.232,487.492,42.48"/>
						<path fill="#426D24" d="M461.134,14.213l-5.603,11.472c-5.66-2.347-11.784-3.677-17.938-3.677l5.603-11.472
							C449.351,10.536,455.474,11.866,461.134,14.213"/>
					</g>
				</g>
				<g>
					<polygon fill="#3D6522" points="490.357,54.445 484.754,65.917 481.888,53.951 487.492,42.48 					"/>
				</g>
				<g enable-background="new    ">
					<defs>
						<path id="SVGID_00000145760308370683334700000004030732919112358057_" enable-background="new    " d="M488.764,71.512
							l-5.603,11.472c2.413-4.94,3.095-10.795,1.593-17.066l5.603-11.472C491.859,60.716,491.177,66.571,488.764,71.512z"/>
					</defs>
					<clipPath id="SVGID_00000149348451977626548780000008700895464370839465_">
						<use xlink:href="#SVGID_00000145760308370683334700000004030732919112358057_"  overflow="visible"/>
					</clipPath>
					<g clip-path="url(#SVGID_00000149348451977626548780000008700895464370839465_)" enable-background="new    ">
						<path fill="#3F6923" d="M488.764,71.512l-5.603,11.472c2.413-4.94,3.095-10.795,1.593-17.066l5.603-11.472
							C491.859,60.716,491.177,66.571,488.764,71.512"/>
					</g>
				</g>
				<g enable-background="new    ">
					<defs>
						<path id="SVGID_00000118396040011820887170000012189667260216686489_" enable-background="new    " d="M497.752,75.891
							l-5.603,11.472c-5.483,11.225-18.08,18.69-34.428,18.69l5.603-11.472C479.672,94.581,492.269,87.116,497.752,75.891z"/>
					</defs>
					<clipPath id="SVGID_00000013152931707324461980000013397328131871449745_">
						<use xlink:href="#SVGID_00000118396040011820887170000012189667260216686489_"  overflow="visible"/>
					</clipPath>
					<g clip-path="url(#SVGID_00000013152931707324461980000013397328131871449745_)" enable-background="new    ">
						<path fill="#426D24" d="M497.752,75.891l-5.603,11.472c-5.483,11.225-18.08,18.69-34.428,18.69l5.603-11.472
							C479.672,94.581,492.269,87.116,497.752,75.891"/>
					</g>
				</g>
				<g>
					<polygon fill="#487627" points="443.196,10.536 437.593,22.007 47.528,22.007 53.132,10.536 					"/>
				</g>
				<g enable-background="new    ">
					<defs>
						<path id="SVGID_00000098902416614751701000000007918949233009719199_" enable-background="new    " d="M20.127,36.885
							l5.603-11.472c4.364-8.935,14.391-14.878,27.402-14.878l-5.603,11.472C34.518,22.007,24.491,27.95,20.127,36.885z"/>
					</defs>
					<clipPath id="SVGID_00000068660019259994424650000002129838817610855838_">
						<use xlink:href="#SVGID_00000098902416614751701000000007918949233009719199_"  overflow="visible"/>
					</clipPath>
					<g clip-path="url(#SVGID_00000068660019259994424650000002129838817610855838_)" enable-background="new    ">
						<path fill="#426D24" d="M53.132,10.536l-5.603,11.472c-13.011,0-23.037,5.943-27.402,14.878l5.603-11.472
							C30.094,16.479,40.121,10.536,53.132,10.536"/>
					</g>
				</g>
				<g enable-background="new    ">
					<defs>
						<path id="SVGID_00000115503821176359975210000000061547467733810323_" enable-background="new    " d="M11.139,32.506
							l5.603-11.472c-3.032,6.207-3.889,13.565-2.001,21.445L9.137,53.951C7.25,46.071,8.107,38.714,11.139,32.506z"/>
					</defs>
					<clipPath id="SVGID_00000109723412916233871300000008453270986411125379_">
						<use xlink:href="#SVGID_00000115503821176359975210000000061547467733810323_"  overflow="visible"/>
					</clipPath>
					<g clip-path="url(#SVGID_00000109723412916233871300000008453270986411125379_)" enable-background="new    ">
						<path fill="#3F6923" d="M14.741,42.48L9.137,53.951c-1.887-7.881-1.031-15.238,2.001-21.445l5.603-11.472
							C13.71,27.242,12.853,34.599,14.741,42.48"/>
					</g>
				</g>
				<g>
					<polygon fill="#3D6522" points="17.606,54.445 12.003,65.917 9.137,53.951 14.741,42.48 					"/>
				</g>
				<g>
					<polygon fill="#487627" points="463.324,94.581 457.72,106.052 67.656,106.052 73.259,94.581 					"/>
				</g>
				<g>
					<path fill="#77C542" d="M441.234,2.345c25.389,0,50.353,18.003,55.653,40.135l2.866,11.965
						c5.3,22.132-11.041,40.135-36.429,40.135l-390.064,0c-25.389,0-50.353-18.003-55.653-40.135L14.741,42.48
						C9.44,20.348,25.781,2.345,51.17,2.345L441.234,2.345z M490.357,54.445l-2.866-11.965
						c-4.218-17.613-24.091-31.944-44.295-31.944l-390.064,0c-20.204,0-33.213,14.332-28.995,31.944l2.866,11.965
						C31.22,72.058,51.093,86.39,71.298,86.39l390.064,0C481.566,86.39,494.575,72.058,490.357,54.445"/>
				</g>
				<g enable-background="new    ">
					<defs>
						<path id="SVGID_00000067953867102690300580000007050138975030747268_" enable-background="new    " d="M73.259,94.581
							l-5.603,11.472c-25.389,0-50.353-18.003-55.653-40.135l5.603-11.472C22.906,76.577,47.87,94.581,73.259,94.581z"/>
					</defs>
					<clipPath id="SVGID_00000008129853359967006390000015055374380406270617_">
						<use xlink:href="#SVGID_00000067953867102690300580000007050138975030747268_"  overflow="visible"/>
					</clipPath>
					<g clip-path="url(#SVGID_00000008129853359967006390000015055374380406270617_)" enable-background="new    ">
						<path fill="#426D24" d="M73.259,94.581l-5.603,11.472c-7.734,0-15.43-1.671-22.541-4.62l5.603-11.472
							C57.83,92.91,65.525,94.581,73.259,94.581"/>
						<path fill="#3F6923" d="M50.718,89.96l-5.603,11.472C28.882,94.7,15.688,81.306,12.003,65.917l5.603-11.472
							C21.292,69.835,34.485,83.228,50.718,89.96"/>
					</g>
				</g>
			</g>
		</g>
	</g>
	<g>
		<g>
			<g enable-background="new    ">
				<g enable-background="new    ">
					<defs>
						<path id="SVGID_00000182530739607339578310000002102347672603306378_" enable-background="new    " d="M310.282,55.969
							l-5.603,11.472c-0.012,0.024-0.023,0.041-0.035,0.05c-0.021,0.018-0.058,0.027-0.11,0.027c-0.116,0-0.308-0.046-0.576-0.138
							l5.603-11.472c0.268,0.092,0.46,0.138,0.576,0.138c0.052,0,0.089-0.009,0.11-0.027
							C310.259,56.01,310.271,55.993,310.282,55.969z"/>
					</defs>
					<clipPath id="SVGID_00000083052696425898425930000007390244243277726879_">
						<use xlink:href="#SVGID_00000182530739607339578310000002102347672603306378_"  overflow="visible"/>
					</clipPath>
					<g clip-path="url(#SVGID_00000083052696425898425930000007390244243277726879_)" enable-background="new    ">
						<path fill="#4C6B22" d="M310.282,55.969l-5.603,11.472c-0.012,0.024-0.023,0.041-0.035,0.05
							c-0.021,0.018-0.058,0.027-0.11,0.027c-0.116,0-0.308-0.046-0.576-0.138l5.603-11.472c0.268,0.092,0.46,0.138,0.576,0.138
							c0.052,0,0.089-0.009,0.11-0.027C310.259,56.01,310.271,55.993,310.282,55.969"/>
					</g>
				</g>
				<g enable-background="new    ">
					<defs>
						<path id="SVGID_00000010282745983446944860000016007591103150271903_" enable-background="new    " d="M286.275,59.73
							l5.603-11.472c0.338-0.692,0.968-1.035,1.911-1.035c0.685,0,1.285,0.14,1.802,0.428c0.507,0.28,0.917,0.686,1.203,1.209
							c0.296,0.531,0.519,1.002,0.662,1.423l-5.603,11.472c-0.143-0.42-0.366-0.892-0.662-1.423
							c-0.286-0.524-0.697-0.929-1.203-1.209c-0.517-0.288-1.117-0.428-1.802-0.428C287.243,58.696,286.612,59.039,286.275,59.73z"
							/>
					</defs>
					<clipPath id="SVGID_00000178182957178508164360000010578483345541693093_">
						<use xlink:href="#SVGID_00000010282745983446944860000016007591103150271903_"  overflow="visible"/>
					</clipPath>
					<g clip-path="url(#SVGID_00000178182957178508164360000010578483345541693093_)" enable-background="new    ">
						<path fill="#496721" d="M297.456,50.284l-5.603,11.472c-0.143-0.42-0.366-0.892-0.662-1.423
							c-0.286-0.524-0.697-0.929-1.203-1.209c-0.104-0.058-0.212-0.11-0.323-0.156l5.603-11.472
							c0.111,0.046,0.219,0.098,0.323,0.156c0.507,0.28,0.917,0.686,1.203,1.209C297.09,49.392,297.313,49.863,297.456,50.284"/>
						<path fill="#4C6B22" d="M295.268,47.496l-5.603,11.472c-0.44-0.182-0.932-0.272-1.479-0.272c-0.943,0-1.573,0.343-1.911,1.035
							l5.603-11.472c0.338-0.692,0.968-1.035,1.911-1.035C294.336,47.224,294.829,47.313,295.268,47.496"/>
					</g>
				</g>
				<g enable-background="new    ">
					<defs>
						<path id="SVGID_00000017488566213185322040000005249647660749083806_" enable-background="new    " d="M297.853,51.766
							l-5.603,11.472c-0.119-0.568-0.246-1.062-0.397-1.482l5.603-11.472C297.608,50.704,297.734,51.198,297.853,51.766z"/>
					</defs>
					<clipPath id="SVGID_00000049916396210024913720000010747787077968248202_">
						<use xlink:href="#SVGID_00000017488566213185322040000005249647660749083806_"  overflow="visible"/>
					</clipPath>
					<g clip-path="url(#SVGID_00000049916396210024913720000010747787077968248202_)" enable-background="new    ">
						<path fill="#496721" d="M297.853,51.766l-5.603,11.472c-0.119-0.568-0.246-1.062-0.397-1.482l5.603-11.472
							C297.608,50.704,297.734,51.198,297.853,51.766"/>
					</g>
				</g>
				<g>
					<polygon fill="#527425" points="309.561,55.909 303.958,67.38 287.204,67.38 292.807,55.909 					"/>
				</g>
				<g enable-background="new    ">
					<defs>
						<path id="SVGID_00000145022641390112249080000004448994562561852834_" enable-background="new    " d="M302.097,60.307
							l-5.603,11.472c0.245-0.502,0.29-1.121,0.142-1.847l5.603-11.472C302.387,59.186,302.342,59.805,302.097,60.307z"/>
					</defs>
					<clipPath id="SVGID_00000012440992016193340330000014714643057731620753_">
						<use xlink:href="#SVGID_00000145022641390112249080000004448994562561852834_"  overflow="visible"/>
					</clipPath>
					<g clip-path="url(#SVGID_00000012440992016193340330000014714643057731620753_)" enable-background="new    ">
						<path fill="#496721" d="M302.097,60.307l-5.603,11.472c0.245-0.502,0.29-1.121,0.142-1.847l5.603-11.472
							C302.387,59.186,302.342,59.805,302.097,60.307"/>
					</g>
				</g>
				<g>
					<path fill="#89C23E" d="M306.851,46.959c1.623,1.939,2.731,4.129,3.312,6.554c0.131,0.546,0.217,1.121,0.267,1.718
						c-0.056,0.472-0.119,0.737-0.183,0.789c-0.021,0.018-0.058,0.027-0.11,0.027c-0.116,0-0.308-0.046-0.576-0.138l-16.754,0
						c0.392,1.637,1.156,2.993,2.294,4.069c1.137,1.076,2.467,1.615,3.989,1.615c1.336,0,2.249-0.288,2.722-0.855
						c0.483-0.56,0.621-1.327,0.427-2.278h8.55l1.301,5.433c-2.145,1.283-4.338,2.19-6.571,2.721
						c-2.241,0.531-4.848,0.804-7.817,0.804c-3.002,0-5.868-0.597-8.595-1.777c-2.718-1.18-5.001-2.765-6.831-4.755
						c-1.83-1.99-3.029-4.173-3.599-6.554c-0.639-2.669-0.565-5.042,0.214-7.122c0.781-2.072,2.282-3.716,4.487-4.925
						c2.207-1.202,4.98-1.806,8.321-1.806c3.188,0,6.106,0.597,8.749,1.784C303.093,43.45,305.228,45.02,306.851,46.959z
						 M297.853,51.766c-0.119-0.568-0.246-1.062-0.397-1.482c-0.143-0.42-0.366-0.892-0.662-1.423
						c-0.286-0.524-0.697-0.929-1.203-1.209c-0.517-0.288-1.117-0.428-1.802-0.428c-1.006,0-1.657,0.391-1.975,1.18
						c-0.312,0.782-0.354,1.666-0.117,2.654l0.17,0.708H297.853"/>
				</g>
				<g enable-background="new    ">
					<defs>
						<path id="SVGID_00000118393110465854723570000008739890987548855741_" enable-background="new    " d="M273.614,57.927
							l5.603-11.472c-0.119,0.245-0.228,0.496-0.325,0.753c-0.779,2.079-0.853,4.453-0.214,7.122c0.57,2.381,1.77,4.564,3.599,6.554
							c1.83,1.991,4.112,3.576,6.831,4.755c2.727,1.18,5.593,1.777,8.595,1.777c2.969,0,5.576-0.273,7.817-0.804
							c2.233-0.531,4.426-1.438,6.571-2.721l-5.603,11.472c-2.145,1.283-4.338,2.19-6.571,2.721
							c-2.241,0.531-4.848,0.804-7.817,0.804c-3.002,0-5.868-0.597-8.595-1.777c-2.718-1.18-5.001-2.765-6.831-4.755
							c-1.83-1.99-3.029-4.173-3.599-6.554c-0.639-2.669-0.565-5.043,0.214-7.122C273.386,58.423,273.494,58.172,273.614,57.927z"/>
					</defs>
					<clipPath id="SVGID_00000015337644780525460830000016191993997595828398_">
						<use xlink:href="#SVGID_00000118393110465854723570000008739890987548855741_"  overflow="visible"/>
					</clipPath>
					<g clip-path="url(#SVGID_00000015337644780525460830000016191993997595828398_)" enable-background="new    ">
						<path fill="#4C6B22" d="M312.09,63.893l-5.603,11.472c-2.145,1.283-4.338,2.19-6.571,2.721
							c-2.241,0.531-4.848,0.804-7.817,0.804c-2.888,0-5.65-0.553-8.283-1.645l5.603-11.472c2.633,1.092,5.395,1.645,8.283,1.645
							c2.969,0,5.576-0.273,7.817-0.804C307.752,66.083,309.945,65.176,312.09,63.893"/>
						<path fill="#496721" d="M289.42,65.772l-5.603,11.472c-0.104-0.043-0.208-0.087-0.312-0.132
							c-2.718-1.18-5.001-2.765-6.831-4.755c-1.83-1.99-3.029-4.173-3.599-6.554c-0.639-2.669-0.565-5.043,0.214-7.122
							c0.097-0.258,0.206-0.509,0.325-0.753l5.603-11.472c-0.119,0.245-0.228,0.496-0.325,0.753
							c-0.779,2.079-0.853,4.453-0.214,7.122c0.57,2.381,1.77,4.564,3.599,6.554c1.83,1.991,4.112,3.576,6.831,4.755
							C289.212,65.685,289.316,65.729,289.42,65.772"/>
					</g>
				</g>
			</g>
			<g enable-background="new    ">
				<g enable-background="new    ">
					<defs>
						<path id="SVGID_00000145055507987996020920000008920858905092996788_" enable-background="new    " d="M260.594,51.566
							l-5.603,11.472c-0.279-0.774-0.709-1.408-1.289-1.887c-0.582-0.487-1.291-0.73-2.128-0.73c-0.592,0-1.066,0.103-1.425,0.302
							c-0.367,0.199-0.636,0.486-0.82,0.848l5.603-11.472c0.184-0.361,0.454-0.649,0.82-0.848c0.358-0.199,0.832-0.302,1.425-0.302
							c0.837,0,1.547,0.243,2.128,0.73C259.885,50.158,260.315,50.792,260.594,51.566z"/>
					</defs>
					<clipPath id="SVGID_00000167354527684189119370000007448550287433805745_">
						<use xlink:href="#SVGID_00000145055507987996020920000008920858905092996788_"  overflow="visible"/>
					</clipPath>
					<g clip-path="url(#SVGID_00000167354527684189119370000007448550287433805745_)" enable-background="new    ">
						<path fill="#496721" d="M260.594,51.566l-5.603,11.472c-0.279-0.774-0.709-1.408-1.289-1.887
							c-0.241-0.202-0.504-0.361-0.788-0.479l5.603-11.472c0.285,0.118,0.548,0.278,0.788,0.479
							C259.885,50.158,260.315,50.792,260.594,51.566"/>
						<path fill="#4C6B22" d="M258.516,49.2l-5.603,11.472c-0.403-0.167-0.849-0.25-1.34-0.25c-0.592,0-1.066,0.103-1.425,0.302
							c-0.367,0.199-0.636,0.486-0.82,0.848l5.603-11.472c0.184-0.361,0.454-0.649,0.82-0.848c0.358-0.199,0.832-0.302,1.425-0.302
							C257.667,48.949,258.113,49.033,258.516,49.2"/>
					</g>
				</g>
				<g enable-background="new    ">
					<defs>
						<path id="SVGID_00000127026355961533831890000008411100672693361561_" enable-background="new    " d="M231.144,61.619
							l5.603-11.472c0.104-0.214,0.238-0.406,0.399-0.579c0.31-0.332,0.794-0.501,1.436-0.501c2.081,0,3.315,0.811,3.702,2.425
							l-5.603,11.472c-0.387-1.615-1.621-2.425-3.702-2.425c-0.643,0-1.126,0.17-1.436,0.501
							C231.381,61.213,231.248,61.405,231.144,61.619z"/>
					</defs>
					<clipPath id="SVGID_00000047044335253799932920000008930708824720242329_">
						<use xlink:href="#SVGID_00000127026355961533831890000008411100672693361561_"  overflow="visible"/>
					</clipPath>
					<g clip-path="url(#SVGID_00000047044335253799932920000008930708824720242329_)" enable-background="new    ">
						<path fill="#496721" d="M242.283,51.493l-5.603,11.472c-0.243-1.015-0.821-1.713-1.734-2.09l5.603-11.472
							C241.462,49.78,242.04,50.478,242.283,51.493"/>
						<path fill="#4C6B22" d="M240.549,49.402l-5.603,11.472c-0.539-0.223-1.195-0.335-1.967-0.335c-0.643,0-1.126,0.17-1.436,0.501
							c-0.161,0.173-0.294,0.365-0.399,0.579l5.603-11.472c0.104-0.214,0.238-0.406,0.399-0.579c0.31-0.332,0.794-0.501,1.436-0.501
							C239.354,49.067,240.01,49.179,240.549,49.402"/>
					</g>
				</g>
				<g>
					<polygon fill="#527425" points="279.008,66.975 273.405,78.446 258.681,78.446 264.284,66.975 					"/>
				</g>
				<g>
					<polygon fill="#466320" points="264.284,66.975 258.681,78.446 254.991,63.038 260.594,51.566 					"/>
				</g>
				<g>
					<polygon fill="#466320" points="221.086,48.514 215.483,59.986 213.675,52.437 219.279,40.965 					"/>
				</g>
				<g>
					<polygon fill="#527425" points="223.142,48.514 217.538,59.986 215.483,59.986 221.086,48.514 					"/>
				</g>
				<g>
					<polygon fill="#527425" points="260.52,66.975 254.917,78.446 240.388,78.446 245.991,66.975 					"/>
				</g>
				<g>
					<polygon fill="#466320" points="245.991,66.975 240.388,78.446 236.68,62.964 242.283,51.493 					"/>
				</g>
				<g>
					<polygon fill="#466320" points="225.825,59.72 220.222,71.192 217.538,59.986 223.142,48.514 					"/>
				</g>
				<g>
					<polygon fill="#527425" points="242.092,66.975 236.489,78.446 219.93,78.446 225.533,66.975 					"/>
				</g>
				<g>
					<polygon fill="#466320" points="225.533,66.975 219.93,78.446 218.192,71.192 223.796,59.72 					"/>
				</g>
				<g>
					<path fill="#89C23E" d="M260.856,40.478c1.302,0,2.576,0.162,3.838,0.487c1.253,0.324,2.409,0.84,3.473,1.541
						c1.056,0.7,1.985,1.615,2.776,2.728c0.801,1.121,1.386,2.47,1.766,4.055l2.463,10.284h2.064l1.773,7.402h-14.724l-3.69-15.408
						c-0.278-0.774-0.709-1.408-1.289-1.887c-0.582-0.487-1.291-0.73-2.128-0.73c-0.592,0-1.066,0.103-1.425,0.302
						c-0.367,0.199-0.636,0.486-0.82,0.848c-0.174,0.369-0.276,0.789-0.286,1.276c-0.019,0.486,0.037,1.003,0.144,1.556l1.591,6.642
						h2.368l1.773,7.402h-14.529l-3.708-15.482c-0.387-1.615-1.621-2.425-3.702-2.425c-0.643,0-1.126,0.17-1.436,0.501
						c-0.309,0.332-0.517,0.737-0.612,1.224c-0.095,0.486-0.113,1.01-0.057,1.563c0.058,0.56,0.143,1.054,0.249,1.497l1.382,5.772
						h2.224l1.76,7.35h-16.559l-1.737-7.254h2.03l-2.684-11.206h-2.055l-1.808-7.549h14.361l0.987,4.121
						c0.452-0.759,1.012-1.423,1.678-1.998c0.674-0.575,1.405-1.054,2.2-1.445c0.803-0.391,1.639-0.678,2.523-0.87
						c0.874-0.199,1.764-0.295,2.652-0.295c1.565,0,3.095,0.42,4.607,1.261c1.512,0.841,2.85,2.049,4.021,3.62
						C254.041,42.108,256.89,40.478,260.856,40.478z"/>
				</g>
			</g>
			<g enable-background="new    ">
				<g>
					<polygon fill="#466320" points="203.496,52.613 197.893,64.085 197.632,62.994 203.235,51.522 					"/>
				</g>
				<g enable-background="new    ">
					<defs>
						<path id="SVGID_00000150080441699103895220000013735315938836802457_" enable-background="new    " d="M203.235,51.522
							l-5.603,11.472c-0.644-2.691-2.919-4.033-6.835-4.033c-2.655,0-4.466,0.774-5.435,2.307l5.603-11.472
							c0.969-1.533,2.779-2.307,5.435-2.307C200.316,47.489,202.59,48.831,203.235,51.522z"/>
					</defs>
					<clipPath id="SVGID_00000104685330477431527780000006373492358386997170_">
						<use xlink:href="#SVGID_00000150080441699103895220000013735315938836802457_"  overflow="visible"/>
					</clipPath>
					<g clip-path="url(#SVGID_00000104685330477431527780000006373492358386997170_)" enable-background="new    ">
						<path fill="#496721" d="M203.235,51.522l-5.603,11.472c-0.386-1.611-1.356-2.739-2.913-3.384l5.603-11.472
							C201.879,48.784,202.849,49.911,203.235,51.522"/>
						<path fill="#4C6B22" d="M200.322,48.138l-5.603,11.472c-1.044-0.433-2.351-0.649-3.922-0.649
							c-2.655,0-4.466,0.774-5.435,2.307l5.603-11.472c0.969-1.533,2.779-2.307,5.435-2.307
							C197.971,47.489,199.278,47.705,200.322,48.138"/>
					</g>
				</g>
				<g>
					<polygon fill="#517224" points="204.598,56.86 198.994,68.331 198.575,68.206 204.179,56.734 					"/>
				</g>
				<g>
					<polygon fill="#527425" points="190.965,49.797 185.361,61.268 180.49,61.268 186.093,49.797 					"/>
				</g>
				<g>
					<polygon fill="#466320" points="186.093,49.797 180.49,61.268 178.664,53.646 184.268,42.174 					"/>
				</g>
				<g>
					<polygon fill="#466320" points="205.452,60.428 199.849,71.899 198.994,68.331 204.598,56.86 					"/>
				</g>
				<g enable-background="new    ">
					<defs>
						<path id="SVGID_00000010278907693195688440000017599897451032448696_" enable-background="new    " d="M193.987,69.086
							l5.603-11.472c0.072-0.148,0.163-0.291,0.273-0.431c0.443-0.553,1.061-0.833,1.856-0.833c0.406,0,0.846,0.037,1.322,0.118
							c0.476,0.081,0.853,0.17,1.138,0.266l-5.603,11.472c-0.285-0.096-0.662-0.184-1.138-0.266
							c-0.476-0.081-0.916-0.118-1.322-0.118c-0.795,0-1.413,0.28-1.856,0.833C194.15,68.795,194.059,68.939,193.987,69.086z"/>
					</defs>
					<clipPath id="SVGID_00000077291709595484193210000003600026838979071160_">
						<use xlink:href="#SVGID_00000010278907693195688440000017599897451032448696_"  overflow="visible"/>
					</clipPath>
					<g clip-path="url(#SVGID_00000077291709595484193210000003600026838979071160_)" enable-background="new    ">
						<path fill="#4C6B22" d="M204.179,56.734l-5.603,11.472c-0.285-0.096-0.662-0.184-1.138-0.266
							c-0.476-0.081-0.916-0.118-1.322-0.118c-0.795,0-1.413,0.28-1.856,0.833c-0.11,0.139-0.201,0.283-0.273,0.431l5.603-11.472
							c0.072-0.148,0.163-0.291,0.273-0.431c0.443-0.553,1.061-0.833,1.856-0.833c0.406,0,0.846,0.037,1.322,0.118
							C203.517,56.55,203.893,56.638,204.179,56.734"/>
					</g>
				</g>
				<g>
					<polygon fill="#496821" points="208.441,66.975 202.838,78.446 200.76,75.564 206.363,64.092 					"/>
				</g>
				<g>
					<polygon fill="#527425" points="221.584,66.975 215.98,78.446 202.838,78.446 208.441,66.975 					"/>
				</g>
				<g enable-background="new    ">
					<defs>
						<path id="SVGID_00000121967636891402030610000004378405079897123767_" enable-background="new    " d="M180.614,67.417
							l5.603-11.472c-0.026,0.053-0.051,0.108-0.076,0.162c-0.45,1.018-0.525,2.153-0.226,3.399
							c0.577,2.411,2.085,4.328,4.534,5.758c2.457,1.43,5.184,2.153,8.186,2.153c1.522,0,3.025-0.295,4.501-0.877
							c1.467-0.583,2.548-1.401,3.228-2.448l-5.603,11.472c-0.68,1.047-1.761,1.865-3.228,2.448
							c-1.476,0.582-2.978,0.877-4.501,0.877c-3.002,0-5.729-0.722-8.186-2.153c-2.449-1.43-3.956-3.347-4.534-5.758
							c-0.298-1.246-0.223-2.381,0.226-3.399C180.563,67.525,180.588,67.471,180.614,67.417z"/>
					</defs>
					<clipPath id="SVGID_00000170245527838667428940000008709196294142199443_">
						<use xlink:href="#SVGID_00000121967636891402030610000004378405079897123767_"  overflow="visible"/>
					</clipPath>
					<g clip-path="url(#SVGID_00000170245527838667428940000008709196294142199443_)" enable-background="new    ">
						<path fill="#4C6B22" d="M206.363,64.092l-5.603,11.472c-0.68,1.047-1.761,1.865-3.228,2.448
							c-1.476,0.582-2.978,0.877-4.501,0.877c-2.251,0-4.347-0.406-6.291-1.212l5.603-11.472c1.944,0.806,4.04,1.212,6.291,1.212
							c1.522,0,3.025-0.295,4.501-0.877C204.603,65.957,205.684,65.139,206.363,64.092"/>
						<path fill="#496721" d="M192.344,66.205l-5.603,11.472c-0.649-0.269-1.281-0.583-1.895-0.941
							c-2.449-1.43-3.956-3.347-4.534-5.758c-0.298-1.246-0.223-2.381,0.226-3.399c0.025-0.055,0.05-0.109,0.076-0.162l5.603-11.472
							c-0.026,0.054-0.051,0.108-0.076,0.162c-0.45,1.018-0.525,2.153-0.226,3.399c0.577,2.411,2.085,4.328,4.534,5.758
							C191.064,65.622,191.695,65.936,192.344,66.205"/>
					</g>
				</g>
				<g>
					<path fill="#89C23E" d="M217.688,59.573h2.123l1.773,7.402h-13.143l-2.077-2.883c-0.68,1.047-1.761,1.865-3.228,2.448
						c-1.476,0.582-2.978,0.877-4.501,0.877c-3.002,0-5.729-0.722-8.186-2.153c-2.449-1.43-3.956-3.347-4.534-5.758
						c-0.298-1.246-0.223-2.381,0.226-3.399c0.458-1.017,1.182-1.843,2.181-2.477c0.998-0.634,2.169-1.113,3.51-1.445
						c1.341-0.332,2.783-0.494,4.322-0.494c2.706,0,5.155,0.302,7.342,0.922l-0.261-1.091c-0.644-2.691-2.919-4.033-6.835-4.033
						c-2.655,0-4.466,0.774-5.435,2.307h-4.871l-1.826-7.623l1.765-0.435c1.178-0.273,2.853-0.553,5.027-0.833
						c2.181-0.288,4.261-0.428,6.249-0.428c0.761,0,1.448,0.008,2.06,0.022c0.623,0.022,1.525,0.081,2.712,0.199
						c1.185,0.111,2.256,0.273,3.2,0.472c0.953,0.199,1.999,0.509,3.147,0.922c1.148,0.413,2.135,0.9,2.965,1.467
						c0.829,0.568,1.596,1.298,2.277,2.197c0.689,0.899,1.166,1.902,1.434,3.023L217.688,59.573z M205.452,60.428l-0.855-3.568
						l-0.419-0.125c-0.285-0.096-0.662-0.184-1.138-0.266c-0.476-0.081-0.916-0.118-1.322-0.118c-0.795,0-1.413,0.28-1.856,0.833
						c-0.441,0.56-0.578,1.187-0.412,1.88c0.175,0.73,0.555,1.327,1.146,1.784c0.593,0.464,1.299,0.693,2.12,0.693
						c0.592,0,1.126-0.103,1.59-0.317c0.475-0.206,0.764-0.376,0.888-0.494C205.309,60.605,205.396,60.509,205.452,60.428"/>
				</g>
			</g>
			<g enable-background="new    ">
				<g enable-background="new    ">
					<defs>
						<path id="SVGID_00000156584132466177884570000000097800697893255571_" enable-background="new    " d="M168.793,48.994
							l5.603-11.472c0.073-0.149,0.162-0.287,0.268-0.413c0.525-0.634,1.574-0.951,3.155-0.951l-5.603,11.472
							c-1.582,0-2.63,0.317-3.155,0.951C168.956,48.707,168.866,48.845,168.793,48.994z"/>
					</defs>
					<clipPath id="SVGID_00000011732378590281327370000009228389221567951002_">
						<use xlink:href="#SVGID_00000156584132466177884570000000097800697893255571_"  overflow="visible"/>
					</clipPath>
					<g clip-path="url(#SVGID_00000011732378590281327370000009228389221567951002_)" enable-background="new    ">
						<path fill="#4C6B22" d="M177.82,36.158l-5.603,11.472c-1.582,0-2.63,0.317-3.155,0.951c-0.106,0.126-0.195,0.264-0.268,0.413
							l5.603-11.472c0.073-0.149,0.162-0.287,0.268-0.413C175.19,36.475,176.239,36.158,177.82,36.158"/>
					</g>
				</g>
				<g enable-background="new    ">
					<defs>
						<path id="SVGID_00000017517477847495741040000016573462806325828237_" enable-background="new    " d="M164.842,38.186
							l-5.603,11.472c-0.146-0.361-0.341-0.649-0.575-0.848c-0.235-0.206-0.53-0.413-0.888-0.634l5.603-11.472
							c0.357,0.221,0.652,0.428,0.888,0.634C164.5,37.537,164.696,37.824,164.842,38.186z"/>
					</defs>
					<clipPath id="SVGID_00000147195683077245965880000001817172244952084135_">
						<use xlink:href="#SVGID_00000017517477847495741040000016573462806325828237_"  overflow="visible"/>
					</clipPath>
					<g clip-path="url(#SVGID_00000147195683077245965880000001817172244952084135_)" enable-background="new    ">
						<path fill="#496721" d="M164.842,38.186l-5.603,11.472c-0.146-0.361-0.341-0.649-0.575-0.848
							c-0.235-0.206-0.53-0.413-0.888-0.634l5.603-11.472c0.357,0.221,0.652,0.428,0.888,0.634
							C164.5,37.537,164.696,37.824,164.842,38.186"/>
					</g>
				</g>
				<g>
					<polygon fill="#466320" points="160.086,36.158 154.482,47.63 152.431,39.063 158.034,27.591 					"/>
				</g>
				<g enable-background="new    ">
					<defs>
						<path id="SVGID_00000115514602279893461760000003464841306985702289_" enable-background="new    " d="M163.379,36.704
							l-5.603,11.472c-0.364-0.214-0.824-0.368-1.376-0.45c-0.468-0.068-0.987-0.1-1.568-0.1c-0.114,0-0.231,0.001-0.35,0.004
							l5.603-11.472c0.119-0.002,0.235-0.004,0.35-0.004c0.58,0,1.099,0.032,1.568,0.1C162.555,36.335,163.015,36.49,163.379,36.704
							z"/>
					</defs>
					<clipPath id="SVGID_00000106827967819791233140000002789576235120340104_">
						<use xlink:href="#SVGID_00000115514602279893461760000003464841306985702289_"  overflow="visible"/>
					</clipPath>
					<g clip-path="url(#SVGID_00000106827967819791233140000002789576235120340104_)" enable-background="new    ">
						<path fill="#496721" d="M163.379,36.704l-5.603,11.472c-0.113-0.066-0.236-0.127-0.368-0.182l5.603-11.472
							C163.143,36.576,163.266,36.637,163.379,36.704"/>
						<path fill="#4C6B22" d="M163.011,36.522l-5.603,11.472c-0.292-0.121-0.628-0.212-1.009-0.268
							c-0.468-0.068-0.987-0.1-1.568-0.1c-0.114,0-0.231,0.001-0.35,0.004l5.603-11.472c0.119-0.002,0.235-0.004,0.35-0.004
							c0.58,0,1.099,0.032,1.568,0.1C162.383,36.31,162.72,36.401,163.011,36.522"/>
					</g>
				</g>
				<g enable-background="new    ">
					<defs>
						<path id="SVGID_00000178907984184110902300000006789815785939977660_" enable-background="new    " d="M165.378,39.896
							l-5.603,11.472c-0.092-0.383-0.171-0.678-0.225-0.87c-0.056-0.199-0.157-0.479-0.311-0.84l5.603-11.472
							c0.154,0.361,0.255,0.642,0.311,0.84C165.208,39.218,165.287,39.513,165.378,39.896z"/>
					</defs>
					<clipPath id="SVGID_00000027605986630011428630000010922124478264477100_">
						<use xlink:href="#SVGID_00000178907984184110902300000006789815785939977660_"  overflow="visible"/>
					</clipPath>
					<g clip-path="url(#SVGID_00000027605986630011428630000010922124478264477100_)" enable-background="new    ">
						<path fill="#496721" d="M165.378,39.896l-5.603,11.472c-0.092-0.383-0.171-0.678-0.225-0.87
							c-0.056-0.199-0.157-0.479-0.311-0.84l5.603-11.472c0.154,0.361,0.255,0.642,0.311,0.84
							C165.208,39.218,165.287,39.513,165.378,39.896"/>
					</g>
				</g>
				<g>
					<polygon fill="#466320" points="168.104,51.279 162.501,62.75 159.775,51.367 165.378,39.896 					"/>
				</g>
				<g>
					<polygon fill="#466320" points="130.204,36.114 124.601,47.586 122.56,39.063 128.163,27.591 					"/>
				</g>
				<g>
					<polygon fill="#527425" points="134.576,36.114 128.973,47.586 124.601,47.586 130.204,36.114 					"/>
				</g>
				<g>
					<polygon fill="#466320" points="138.771,53.631 133.168,65.102 128.973,47.586 134.576,36.114 					"/>
				</g>
				<g>
					<polygon fill="#4A6921" points="163.931,66.975 158.327,78.446 139.884,56.417 145.487,44.946 					"/>
				</g>
				<g>
					<polygon fill="#527425" points="180.803,66.975 175.199,78.446 158.327,78.446 163.931,66.975 					"/>
				</g>
				<g enable-background="new    ">
					<defs>
						<path id="SVGID_00000044891954271079442710000014503067971781079202_" enable-background="new    " d="M139.07,55.091
							l-5.603,11.472c-0.053-0.362-0.152-0.848-0.299-1.46l5.603-11.472C138.918,54.243,139.017,54.729,139.07,55.091z"/>
					</defs>
					<clipPath id="SVGID_00000004516354425204738100000013198556394457568653_">
						<use xlink:href="#SVGID_00000044891954271079442710000014503067971781079202_"  overflow="visible"/>
					</clipPath>
					<g clip-path="url(#SVGID_00000004516354425204738100000013198556394457568653_)" enable-background="new    ">
						<path fill="#496721" d="M139.07,55.091l-5.603,11.472c-0.053-0.362-0.152-0.848-0.299-1.46l5.603-11.472
							C138.918,54.243,139.017,54.729,139.07,55.091"/>
					</g>
				</g>
				<g enable-background="new    ">
					<defs>
						<path id="SVGID_00000096060369172413847270000008781979728867566270_" enable-background="new    " d="M138.88,57.01
							l-5.603,11.472c0.096-0.196,0.157-0.428,0.187-0.696c0.05-0.464,0.045-0.87,0.003-1.224l5.603-11.472
							c0.042,0.354,0.046,0.759-0.003,1.224C139.037,56.582,138.975,56.815,138.88,57.01z"/>
					</defs>
					<clipPath id="SVGID_00000005264285508661305750000006869463154377291656_">
						<use xlink:href="#SVGID_00000096060369172413847270000008781979728867566270_"  overflow="visible"/>
					</clipPath>
					<g clip-path="url(#SVGID_00000005264285508661305750000006869463154377291656_)" enable-background="new    ">
						<path fill="#496721" d="M138.88,57.01l-5.603,11.472c0.096-0.196,0.157-0.428,0.187-0.696c0.05-0.464,0.045-0.87,0.003-1.224
							l5.603-11.472c0.042,0.354,0.046,0.759-0.003,1.224C139.037,56.582,138.975,56.815,138.88,57.01"/>
					</g>
				</g>
				<g>
					<path fill="#89C23E" d="M158.034,27.591l17.742,0.03l2.045,8.537c-1.582,0-2.63,0.317-3.155,0.951
						c-0.526,0.627-0.646,1.541-0.358,2.743l6.495,27.123h-16.872l-18.444-22.029l2.331,9.731c0.316,1.32,0.879,2.256,1.682,2.787
						c0.805,0.538,2.002,0.804,3.575,0.804l2.085,8.707h-17.726l-2.085-8.707c0.854,0,1.552-0.088,2.093-0.266
						c0.54-0.184,0.93-0.391,1.185-0.634c0.246-0.243,0.39-0.597,0.441-1.054c0.05-0.464,0.045-0.87,0.003-1.224
						c-0.053-0.362-0.152-0.848-0.299-1.46l-4.195-17.517h-4.372l-2.041-8.523h20.467l19.475,23.687l-2.726-11.383
						c-0.092-0.383-0.171-0.678-0.225-0.87c-0.056-0.199-0.157-0.479-0.311-0.84c-0.146-0.361-0.341-0.649-0.575-0.848
						c-0.235-0.206-0.53-0.413-0.888-0.634c-0.364-0.214-0.824-0.368-1.376-0.45c-0.468-0.068-0.987-0.1-1.568-0.1
						c-0.114,0-0.231,0.001-0.35,0.004L158.034,27.591z"/>
				</g>
				<g>
					<polygon fill="#466320" points="137.434,66.975 131.831,78.446 129.746,69.739 135.349,58.268 					"/>
				</g>
				<g>
					<polygon fill="#527425" points="155.16,66.975 149.557,78.446 131.831,78.446 137.434,66.975 					"/>
				</g>
			</g>
		</g>
	</g>
</g>
</svg>
